<svg width="30" height="30" viewBox="0 0 30 30" fill="none" xmlns="http://www.w3.org/2000/svg">
<circle opacity="0.2" cx="15" cy="15" r="15" fill="#FF9069"/>
<path fill-rule="evenodd" clip-rule="evenodd" d="M10.7278 8.99844C10.7278 8.99843 10.728 8.99863 10.7283 8.99908L10.7278 8.99844ZM10.7601 9.04966L12.2656 11.445C12.0837 11.6175 11.8852 11.7883 11.6717 11.9722C11.4881 12.1302 11.2934 12.2978 11.0884 12.4844C10.5803 12.9468 10.4821 13.6905 10.811 14.2692C12.5499 17.3296 14.9218 18.7222 15.983 19.2222C16.6224 19.5234 17.3171 19.2857 17.7038 18.7935L18.7455 17.4674C18.7462 17.4666 18.7461 17.4668 18.7457 17.4671C18.7456 17.4671 18.7464 17.4667 18.748 17.4664C18.7495 17.4661 18.7511 17.4662 18.7524 17.4664C18.7533 17.4666 18.7547 17.4669 18.7568 17.4683C19.3639 17.8429 20.2108 18.3521 20.9887 18.7831C20.849 19.6266 20.5281 20.118 20.1742 20.4184C19.8026 20.7339 19.3221 20.8999 18.7861 20.9598C17.716 21.0795 16.6296 20.7548 16.3887 20.6757C16.1228 20.5398 14.6652 19.7725 13.1079 18.5292C11.5021 17.2471 9.89188 15.5384 9.27606 13.5787C8.826 12.1465 8.99571 11.1386 9.34945 10.4434C9.69141 9.77139 10.2448 9.31526 10.7601 9.04966ZM10.2155 7.63197C10.925 7.29548 11.6586 7.64632 12.0003 8.19002L13.5752 10.6959C13.8936 11.2025 13.9154 11.9431 13.3978 12.4504C13.176 12.6679 12.8673 12.9351 12.5801 13.1838C12.4225 13.3203 12.2713 13.4512 12.1445 13.5652C13.6411 16.1713 15.642 17.377 16.552 17.8179L17.5651 16.5283C18.0434 15.9195 18.895 15.7772 19.5435 16.1775C20.1435 16.5477 20.9729 17.0461 21.7245 17.4622C22.2258 17.7397 22.5843 18.3183 22.4827 18.9715C22.3003 20.1447 21.8236 20.9992 21.1445 21.5758C20.4766 22.1428 19.6811 22.3833 18.9523 22.4648C17.5189 22.6251 16.1479 22.191 15.8975 22.1072C15.8341 22.086 15.7815 22.0636 15.725 22.0348C15.4562 21.8983 13.8722 21.0724 12.1726 19.7154C10.4907 18.3725 8.59388 16.43 7.84135 14.0352C7.28858 12.2762 7.4521 10.8499 8.01008 9.7533C8.55829 8.67593 9.44607 7.99693 10.2155 7.63197Z" fill="#FF9069"/>
</svg>
