<svg width="16" height="16" viewBox="0 0 16 16" fill="none" xmlns="http://www.w3.org/2000/svg">
<path d="M7.54038 8.16768C7.88737 8.16768 8.16865 7.88639 8.16865 7.5394C8.16865 7.19242 7.88737 6.91113 7.54038 6.91113C7.1934 6.91113 6.91211 7.19242 6.91211 7.5394C6.91211 7.88639 7.1934 8.16768 7.54038 8.16768Z" stroke="#777777" stroke-width="1.54651" stroke-linecap="round" stroke-linejoin="round"/>
<path d="M11.9369 8.16768C12.2838 8.16768 12.5651 7.88639 12.5651 7.5394C12.5651 7.19242 12.2838 6.91113 11.9369 6.91113C11.5899 6.91113 11.3086 7.19242 11.3086 7.5394C11.3086 7.88639 11.5899 8.16768 11.9369 8.16768Z" stroke="#777777" stroke-width="1.54651" stroke-linecap="round" stroke-linejoin="round"/>
<path d="M3.14097 8.16768C3.48795 8.16768 3.76924 7.88639 3.76924 7.5394C3.76924 7.19242 3.48795 6.91113 3.14097 6.91113C2.79398 6.91113 2.5127 7.19242 2.5127 7.5394C2.5127 7.88639 2.79398 8.16768 3.14097 8.16768Z" stroke="#777777" stroke-width="1.54651" stroke-linecap="round" stroke-linejoin="round"/>
</svg>
