<svg width="32" height="32" viewBox="0 0 32 32" fill="none" xmlns="http://www.w3.org/2000/svg">
<circle cx="16" cy="16" r="16" fill="#D9D9D9"/>
<path d="M16.3919 17.1637C16.819 17.1637 17.1652 16.8175 17.1652 16.3904C17.1652 15.9634 16.819 15.6172 16.3919 15.6172C15.9649 15.6172 15.6187 15.9634 15.6187 16.3904C15.6187 16.8175 15.9649 17.1637 16.3919 17.1637Z" stroke="#777777" stroke-width="1.54651" stroke-linecap="round" stroke-linejoin="round"/>
<path d="M21.803 17.1637C22.2301 17.1637 22.5763 16.8175 22.5763 16.3904C22.5763 15.9634 22.2301 15.6172 21.803 15.6172C21.376 15.6172 21.0298 15.9634 21.0298 16.3904C21.0298 16.8175 21.376 17.1637 21.803 17.1637Z" stroke="#777777" stroke-width="1.54651" stroke-linecap="round" stroke-linejoin="round"/>
<path d="M10.9774 17.1637C11.4044 17.1637 11.7506 16.8175 11.7506 16.3904C11.7506 15.9634 11.4044 15.6172 10.9774 15.6172C10.5503 15.6172 10.2041 15.9634 10.2041 16.3904C10.2041 16.8175 10.5503 17.1637 10.9774 17.1637Z" stroke="#777777" stroke-width="1.54651" stroke-linecap="round" stroke-linejoin="round"/>
</svg>
