<svg width="30" height="30" viewBox="0 0 30 30" fill="none" xmlns="http://www.w3.org/2000/svg">
<circle opacity="0.3" cx="15" cy="15" r="15" fill="#C7D8DC"/>
<path fill-rule="evenodd" clip-rule="evenodd" d="M18.9394 18.4939C18.6667 18.8056 18.1928 18.8372 17.8811 18.5644C17.5694 18.2917 17.5378 17.8178 17.8106 17.5061L19.3472 15.75L12 15.75C11.5858 15.75 11.25 15.4142 11.25 15C11.25 14.5858 11.5858 14.25 12 14.25L19.3472 14.25L17.8106 12.4939C17.5378 12.1822 17.5694 11.7083 17.8811 11.4356C18.1928 11.1628 18.6667 11.1944 18.9394 11.5061L21.5644 14.5061C21.8119 14.7889 21.8119 15.2111 21.5644 15.4939L18.9394 18.4939ZM12 9C12.4142 9 12.75 8.66421 12.75 8.25C12.75 7.83579 12.4142 7.5 12 7.5L9.75 7.5C8.92157 7.5 8.25 8.17157 8.25 9L8.25 21C8.25 21.8284 8.92157 22.5 9.75 22.5L12 22.5C12.4142 22.5 12.75 22.1642 12.75 21.75C12.75 21.3358 12.4142 21 12 21L9.75 21L9.75 9L12 9Z" fill="#447C8A"/>
</svg>
