<svg width="10" height="10" viewBox="0 0 10 10" fill="none" xmlns="http://www.w3.org/2000/svg">
<path d="M6.9125 1.42107C7.01847 1.31509 7.14429 1.23102 7.28276 1.17367C7.42123 1.11631 7.56964 1.08679 7.71951 1.08679C7.86939 1.08679 8.0178 1.11631 8.15627 1.17367C8.29474 1.23102 8.42055 1.31509 8.52653 1.42107C8.63251 1.52705 8.71658 1.65286 8.77393 1.79133C8.83129 1.9298 8.86081 2.07821 8.86081 2.22809C8.86081 2.37796 8.83129 2.52637 8.77393 2.66484C8.71658 2.80331 8.63251 2.92913 8.52653 3.0351L3.07916 8.48247L0.859863 9.08774L1.46513 6.86844L6.9125 1.42107Z" stroke="#FAA61A" stroke-width="1.21053" stroke-linecap="round" stroke-linejoin="round"/>
</svg>
