<svg width="30" height="30" viewBox="0 0 30 30" fill="none" xmlns="http://www.w3.org/2000/svg">
<circle opacity="0.2" cx="15" cy="15" r="15" fill="#00433F"/>
<path fill-rule="evenodd" clip-rule="evenodd" d="M7.5 15C7.5 19.1421 10.8579 22.5 15 22.5C19.1421 22.5 22.5 19.1421 22.5 15C22.5 10.8579 19.1421 7.5 15 7.5C10.8579 7.5 7.5 10.8579 7.5 15ZM14.5811 9.0144C14.7195 9.00485 14.8592 9 15 9C15.1408 9 15.2805 9.00485 15.4189 9.0144C15.4446 9.04689 15.4722 9.08271 15.5016 9.12187C15.6886 9.37128 15.9452 9.75504 16.2042 10.2729C16.6579 11.1804 17.1214 12.5045 17.2275 14.25L12.7725 14.25C12.8786 12.5045 13.3421 11.1804 13.7958 10.2729C14.0548 9.75504 14.3114 9.37128 14.4984 9.12187C14.5278 9.08271 14.5554 9.04689 14.5811 9.0144ZM11.2701 15.75C11.3787 17.7615 11.9115 19.3125 12.4542 20.3979L12.4784 20.446C10.6407 19.5936 9.30685 17.8385 9.04642 15.75H11.2701ZM11.2701 14.25H9.04642C9.30685 12.1615 10.6407 10.4064 12.4784 9.55402L12.4542 9.60209C11.9115 10.6875 11.3787 12.2385 11.2701 14.25ZM12.7725 15.75L17.2275 15.75C17.1214 17.4955 16.6579 18.8196 16.2042 19.7271C15.9452 20.245 15.6886 20.6287 15.5016 20.8781C15.4722 20.9173 15.4446 20.9531 15.4189 20.9856C15.2805 20.9951 15.1408 21 15 21C14.8592 21 14.7195 20.9951 14.5811 20.9856C14.5554 20.9531 14.5278 20.9173 14.4984 20.8781C14.3114 20.6287 14.0548 20.245 13.7958 19.7271C13.3421 18.8196 12.8786 17.4955 12.7725 15.75ZM18.7299 15.75C18.6213 17.7615 18.0885 19.3125 17.5458 20.3979L17.5216 20.446C19.3593 19.5936 20.6931 17.8385 20.9536 15.75H18.7299ZM20.9536 14.25C20.6931 12.1615 19.3593 10.4064 17.5216 9.55402L17.5458 9.60209C18.0885 10.6875 18.6213 12.2385 18.7299 14.25H20.9536Z" fill="black"/>
</svg>
