<svg width="1097" height="126" viewBox="0 0 1097 126" fill="none" xmlns="http://www.w3.org/2000/svg">
<rect width="1097" height="126" fill="#FAA61A"/>
<g opacity="0.7">
<path d="M961.206 44.5L978.5 27.2062L995.794 44.5L978.5 61.7938L961.206 44.5Z" stroke="#00433F" stroke-width="3.12"/>
<path d="M1008.21 43.5L1025.5 26.2062L1042.79 43.5L1025.5 60.7938L1008.21 43.5Z" stroke="#00433F" stroke-width="3.12"/>
<path d="M1031.21 21.5L1048.5 4.20617L1065.79 21.5L1048.5 38.7938L1031.21 21.5Z" stroke="#00433F" stroke-width="3.12"/>
<path d="M1068.21 102.5L1085.5 85.2062L1102.79 102.5L1085.5 119.794L1068.21 102.5Z" stroke="#00433F" stroke-width="3.12"/>
<path d="M1091.21 80.5L1108.5 63.2062L1125.79 80.5L1108.5 97.7938L1091.21 80.5Z" stroke="#00433F" stroke-width="3.12"/>
<path d="M1068.21 27.5L1085.5 10.2062L1102.79 27.5L1085.5 44.7938L1068.21 27.5Z" stroke="#00433F" stroke-width="3.12"/>
<path d="M1000.21 123.5L1017.5 106.206L1034.79 123.5L1017.5 140.794L1000.21 123.5Z" stroke="#00433F" stroke-width="3.12"/>
<path d="M1022.21 101.5L1039.5 84.2062L1056.79 101.5L1039.5 118.794L1022.21 101.5Z" stroke="#00433F" stroke-width="3.12"/>
<path d="M1045.21 123.5L1062.5 106.206L1079.79 123.5L1062.5 140.794L1045.21 123.5Z" stroke="#00433F" stroke-width="3.12"/>
<path d="M962.206 116.5L979.5 99.2062L996.794 116.5L979.5 133.794L962.206 116.5Z" stroke="#00433F" stroke-width="3.12"/>
<path d="M971.903 79.5L1002.5 48.9032L1033.1 79.5L1002.5 110.097L971.903 79.5Z" stroke="#00433F" stroke-width="5.52"/>
<path d="M1032.9 65.5L1063.5 34.9032L1094.1 65.5L1063.5 96.0968L1032.9 65.5Z" stroke="#00433F" stroke-width="5.52"/>
<path d="M971.903 7.5L1002.5 -23.0968L1033.1 7.5L1002.5 38.0968L971.903 7.5Z" stroke="#00433F" stroke-width="5.52"/>
</g>
<g opacity="0.7">
<path d="M805.206 62.5L822.5 45.2062L839.794 62.5L822.5 79.7938L805.206 62.5Z" stroke="#00433F" stroke-width="3.12"/>
<path d="M852.206 61.5L869.5 44.2062L886.794 61.5L869.5 78.7938L852.206 61.5Z" stroke="#00433F" stroke-width="3.12"/>
<path d="M875.206 39.5L892.5 22.2062L909.794 39.5L892.5 56.7938L875.206 39.5Z" stroke="#00433F" stroke-width="3.12"/>
<path d="M935.206 23.5L952.5 6.20617L969.794 23.5L952.5 40.7938L935.206 23.5Z" stroke="#00433F" stroke-width="3.12"/>
<path d="M896.206 15.5L913.5 -1.79383L930.794 15.5L913.5 32.7938L896.206 15.5Z" stroke="#00433F" stroke-width="3.12"/>
<path d="M866.206 1.5L883.5 -15.7938L900.794 1.5L883.5 18.7938L866.206 1.5Z" stroke="#00433F" stroke-width="3.12"/>
<path d="M912.206 120.5L929.5 103.206L946.794 120.5L929.5 137.794L912.206 120.5Z" stroke="#00433F" stroke-width="3.12"/>
<path d="M935.206 98.5L952.5 81.2062L969.794 98.5L952.5 115.794L935.206 98.5Z" stroke="#00433F" stroke-width="3.12"/>
<path d="M912.206 45.5L929.5 28.2062L946.794 45.5L929.5 62.7938L912.206 45.5Z" stroke="#00433F" stroke-width="3.12"/>
<path d="M844.206 141.5L861.5 124.206L878.794 141.5L861.5 158.794L844.206 141.5Z" stroke="#00433F" stroke-width="3.12"/>
<path d="M866.206 119.5L883.5 102.206L900.794 119.5L883.5 136.794L866.206 119.5Z" stroke="#00433F" stroke-width="3.12"/>
<path d="M889.206 141.5L906.5 124.206L923.794 141.5L906.5 158.794L889.206 141.5Z" stroke="#00433F" stroke-width="3.12"/>
<path d="M806.206 134.5L823.5 117.206L840.794 134.5L823.5 151.794L806.206 134.5Z" stroke="#00433F" stroke-width="3.12"/>
<path d="M815.903 97.5L846.5 66.9032L877.097 97.5L846.5 128.097L815.903 97.5Z" stroke="#00433F" stroke-width="5.52"/>
<path d="M876.903 83.5L907.5 52.9032L938.097 83.5L907.5 114.097L876.903 83.5Z" stroke="#00433F" stroke-width="5.52"/>
<path d="M815.903 25.5L846.5 -5.09677L877.097 25.5L846.5 56.0968L815.903 25.5Z" stroke="#00433F" stroke-width="5.52"/>
</g>
<rect x="730" y="-7" width="367" height="144" fill="url(#paint0_linear_691_1573)"/>
<defs>
<linearGradient id="paint0_linear_691_1573" x1="730" y1="65" x2="1145.02" y2="70.4065" gradientUnits="userSpaceOnUse">
<stop offset="0.197515" stop-color="#FAA61A"/>
<stop offset="1" stop-color="#FAA61A" stop-opacity="0"/>
</linearGradient>
</defs>
</svg>
