<svg width="29" height="29" viewBox="0 0 29 29" fill="none" xmlns="http://www.w3.org/2000/svg">
<circle cx="14.025" cy="14.025" r="14.025" fill="#1183ED" fill-opacity="0.2"/>
<path fill-rule="evenodd" clip-rule="evenodd" d="M5.72656 10.9275V18.5244C5.72656 19.7831 6.74693 20.8034 8.00563 20.8034H18.6413C19.8999 20.8034 20.9203 19.7831 20.9203 18.5244V10.9275C20.9203 9.66881 19.8999 8.64844 18.6413 8.64844H8.00563C6.74693 8.64844 5.72656 9.66881 5.72656 10.9275ZM8.00563 19.2841C7.58606 19.2841 7.24594 18.9439 7.24594 18.5244L7.24594 10.9275C7.24594 10.5079 7.58606 10.1678 8.00563 10.1678L18.6413 10.1678C19.0608 10.1678 19.4009 10.5079 19.4009 10.9275V18.5244C19.4009 18.9439 19.0608 19.2841 18.6413 19.2841L8.00563 19.2841ZM16.8681 11.6872C16.8681 11.2676 16.528 10.9275 16.1084 10.9275C15.6889 10.9275 15.3487 11.2676 15.3487 11.6872V11.8066C14.6254 11.9616 14.0831 12.6045 14.0831 13.3741C14.0831 14.2595 14.8009 14.9773 15.6863 14.9773H16.532C16.5783 14.9773 16.6158 15.0148 16.6158 15.061C16.6158 15.1073 16.5783 15.1448 16.532 15.1448H15.0539C14.6343 15.1448 14.2942 15.4849 14.2942 15.9045C14.2942 16.324 14.6343 16.6642 15.0539 16.6642H15.3487V16.7479C15.3487 17.1675 15.6889 17.5076 16.1084 17.5076C16.528 17.5076 16.8681 17.1675 16.8681 16.7479V16.6289C17.5922 16.4744 18.1352 15.8311 18.1352 15.061C18.1352 14.1756 17.4174 13.4579 16.532 13.4579H15.6863C15.64 13.4579 15.6025 13.4204 15.6025 13.3741C15.6025 13.3278 15.64 13.2903 15.6863 13.2903H17.1644C17.584 13.2903 17.9241 12.9502 17.9241 12.5306C17.9241 12.1111 17.584 11.771 17.1644 11.771H16.8681V11.6872ZM8.00563 15.4856C8.00563 15.0661 8.34575 14.7259 8.76531 14.7259H11.0444C11.4639 14.7259 11.8041 15.0661 11.8041 15.4856C11.8041 15.9052 11.4639 16.2453 11.0444 16.2453H8.76531C8.34575 16.2453 8.00563 15.9052 8.00563 15.4856ZM8.76531 17.005C8.34575 17.005 8.00563 17.3451 8.00563 17.7647C8.00563 18.1843 8.34575 18.5244 8.76531 18.5244H12.9436C13.3632 18.5244 13.7033 18.1843 13.7033 17.7647C13.7033 17.3451 13.3632 17.005 12.9436 17.005H8.76531Z" fill="#1183ED"/>
</svg>
