<svg width="30" height="30" viewBox="0 0 30 30" fill="none" xmlns="http://www.w3.org/2000/svg">
<circle opacity="0.2" cx="15" cy="15" r="15" fill="#565799"/>
<path fill-rule="evenodd" clip-rule="evenodd" d="M14.25 8.25C12.1379 8.25 10.4169 9.25998 9.44467 10.2322C8.46762 11.2092 7.5 12.8937 7.5 15C7.5 17.1121 8.50998 18.8331 9.48217 19.8053C10.4592 20.7824 12.1437 21.75 14.25 21.75C14.6642 21.75 15 21.4142 15 21C15 20.5858 14.6642 20.25 14.25 20.25C12.6063 20.25 11.2879 19.4898 10.5428 18.7447C9.79287 17.9947 9 16.6379 9 15C9 13.3563 9.76023 12.0379 10.5053 11.2928C11.2553 10.5429 12.6121 9.75 14.25 9.75C15.8937 9.75 17.2121 10.5102 17.9572 11.2553C18.5697 11.8678 19.2108 12.8851 19.4252 14.1297L18.8435 13.6643C18.5201 13.4056 18.0481 13.458 17.7893 13.7815C17.5306 14.1049 17.583 14.5769 17.9065 14.8357L19.7815 16.3357C20.0799 16.5744 20.5101 16.5506 20.7803 16.2803L22.2803 14.7803C22.5732 14.4874 22.5732 14.0126 22.2803 13.7197C21.9874 13.4268 21.5126 13.4268 21.2197 13.7197L20.9261 14.0133C20.6763 12.3539 19.8337 11.0106 19.0178 10.1947C18.0408 9.21762 16.3563 8.25 14.25 8.25Z" fill="#565799"/>
</svg>
