<svg width="17" height="17" viewBox="0 0 17 17" fill="none" xmlns="http://www.w3.org/2000/svg">
<path fill-rule="evenodd" clip-rule="evenodd" d="M7.15106 2.27246C6.85341 2.27246 6.59182 2.46978 6.51005 2.75598L6.00311 4.53027L4.24534 4.27916C3.94693 4.23653 3.65704 4.39945 3.5383 4.67651L2.5383 7.00985C2.43091 7.26041 2.4869 7.55111 2.67966 7.74387L3.87492 8.93913L2.67966 10.1344C2.46708 10.347 2.42308 10.6755 2.57223 10.9366L3.90557 13.2699C4.04402 13.5122 4.31873 13.6426 4.59399 13.5967L6.00689 13.3612L6.51005 15.1223C6.59182 15.4085 6.85341 15.6058 7.15106 15.6058H10.4844C10.782 15.6058 11.0436 15.4085 11.1254 15.1223L11.6286 13.3612L13.0415 13.5967C13.3167 13.6426 13.5914 13.5122 13.7299 13.2699L15.0632 10.9366C15.2124 10.6755 15.1684 10.347 14.9558 10.1344L13.7605 8.93913L14.9558 7.74387C15.1486 7.55111 15.2045 7.26041 15.0972 7.00985L14.0972 4.67651C13.9784 4.39945 13.6885 4.23653 13.3901 4.27916L11.6324 4.53027L11.1254 2.75598C11.0436 2.46978 10.782 2.27246 10.4844 2.27246H7.15106ZM7.12541 5.45561L7.65393 3.60579H9.98153L10.51 5.45561C10.6016 5.77595 10.9155 5.97954 11.2453 5.93243L13.0729 5.67135L13.6938 7.12021L12.3463 8.46772C12.086 8.72807 12.086 9.15018 12.3463 9.41053L13.6529 10.7171L12.8026 12.2052L11.2607 11.9482C10.9262 11.8925 10.6032 12.0966 10.51 12.4226L9.98153 14.2725H7.65393L7.12541 12.4226C7.03226 12.0966 6.70925 11.8925 6.37479 11.9482L4.83284 12.2052L3.98252 10.7171L5.28913 9.41053C5.54948 9.15018 5.54948 8.72807 5.28913 8.46772L3.94162 7.12021L4.56256 5.67135L6.39011 5.93243C6.71992 5.97954 7.03389 5.77595 7.12541 5.45561ZM8.81773 10.2725C8.08135 10.2725 7.48439 9.67551 7.48439 8.93913C7.48439 8.20275 8.08135 7.60579 8.81773 7.60579C9.55411 7.60579 10.1511 8.20275 10.1511 8.93913C10.1511 9.67551 9.55411 10.2725 8.81773 10.2725ZM6.15106 8.93913C6.15106 7.46637 7.34497 6.27246 8.81773 6.27246C10.2905 6.27246 11.4844 7.46637 11.4844 8.93913C11.4844 10.4119 10.2905 11.6058 8.81773 11.6058C7.34497 11.6058 6.15106 10.4119 6.15106 8.93913Z" fill="#483D3D"/>
</svg>
