<svg width="40" height="40" viewBox="0 0 40 40" fill="none" xmlns="http://www.w3.org/2000/svg">
<circle opacity="0.3" cx="20" cy="20" r="20" fill="#565799"/>
<path opacity="0.4" d="M24.191 10H15.81C12.77 10 11 11.78 11 14.83V25.16C11 28.26 12.77 30 15.81 30H24.191C27.28 30 29 28.26 29 25.16V14.83C29 11.78 27.28 10 24.191 10" fill="#565799"/>
<path fill-rule="evenodd" clip-rule="evenodd" d="M16.08 14.6504V14.6604C15.649 14.6604 15.3 15.0104 15.3 15.4404C15.3 15.8704 15.649 16.2204 16.08 16.2204H19.069C19.5 16.2204 19.85 15.8704 19.85 15.4294C19.85 15.0004 19.5 14.6504 19.069 14.6504H16.08ZM23.92 20.7404H16.08C15.649 20.7404 15.3 20.3904 15.3 19.9604C15.3 19.5304 15.649 19.1794 16.08 19.1794H23.92C24.35 19.1794 24.7 19.5304 24.7 19.9604C24.7 20.3904 24.35 20.7404 23.92 20.7404ZM23.92 25.3104H16.08C15.78 25.3504 15.49 25.2004 15.33 24.9504C15.17 24.6904 15.17 24.3604 15.33 24.1104C15.49 23.8504 15.78 23.7104 16.08 23.7404H23.92C24.319 23.7804 24.62 24.1204 24.62 24.5304C24.62 24.9294 24.319 25.2704 23.92 25.3104Z" fill="#565799"/>
</svg>
