<svg width="37" height="37" viewBox="0 0 37 37" fill="none" xmlns="http://www.w3.org/2000/svg">
<g clip-path="url(#clip0_539_31771)">
<path d="M24.6668 24.6667L18.5002 18.5L12.3335 24.6667" stroke="black" stroke-width="3.08333" stroke-linecap="round" stroke-linejoin="round"/>
<path d="M18.5 18.5V32.375" stroke="black" stroke-width="3.08333" stroke-linecap="round" stroke-linejoin="round"/>
<path d="M31.4338 28.3514C32.9375 27.5316 34.1253 26.2345 34.8099 24.6647C35.4945 23.0948 35.6368 21.3418 35.2143 19.6821C34.7919 18.0224 33.8288 16.5507 32.4771 15.4992C31.1253 14.4477 29.4618 13.8762 27.7493 13.8751H25.8068C25.3401 12.0702 24.4704 10.3946 23.2629 8.97415C22.0555 7.55375 20.5417 6.42555 18.8355 5.67439C17.1293 4.92322 15.2749 4.56863 13.4119 4.63727C11.5489 4.70591 9.72575 5.196 8.07941 6.07069C6.43308 6.94537 5.00646 8.1819 3.90681 9.68731C2.80715 11.1927 2.06308 12.9278 1.73053 14.7622C1.39797 16.5965 1.4856 18.4824 1.9868 20.2781C2.48801 22.0737 3.38977 23.7323 4.62427 25.1293" stroke="black" stroke-width="3.08333" stroke-linecap="round" stroke-linejoin="round"/>
<path d="M24.6668 24.6667L18.5002 18.5L12.3335 24.6667" stroke="black" stroke-width="3.08333" stroke-linecap="round" stroke-linejoin="round"/>
</g>
<defs>
<clipPath id="clip0_539_31771">
<rect width="37" height="37" fill="white"/>
</clipPath>
</defs>
</svg>
