<svg width="40" height="40" viewBox="0 0 40 40" fill="none" xmlns="http://www.w3.org/2000/svg">
<circle opacity="0.3" cx="20" cy="20" r="20" fill="#565799"/>
<path d="M19.9491 22.54C16.4991 22.54 13.5881 23.1038 13.5881 25.2795C13.5881 27.4562 16.5179 28.0001 19.9491 28.0001C23.3991 28.0001 26.31 27.4364 26.31 25.2606C26.31 23.084 23.3803 22.54 19.9491 22.54Z" fill="#565799"/>
<path opacity="0.4" d="M19.949 20.467C22.2851 20.467 24.1583 18.5831 24.1583 16.2335C24.1583 13.8831 22.2851 12 19.949 12C17.6129 12 15.7397 13.8831 15.7397 16.2335C15.7397 18.5831 17.6129 20.467 19.949 20.467Z" fill="#565799"/>
<path opacity="0.4" d="M29.0881 17.2197C29.6925 14.8422 27.9205 12.707 25.664 12.707C25.4187 12.707 25.1841 12.734 24.9549 12.78C24.9244 12.7872 24.8904 12.8025 24.8725 12.8295C24.8519 12.8637 24.8671 12.9097 24.8895 12.9394C25.5673 13.8958 25.9568 15.0602 25.9568 16.3102C25.9568 17.5079 25.5996 18.6246 24.9728 19.5513C24.9083 19.6467 24.9656 19.7755 25.0793 19.7953C25.2369 19.8232 25.3981 19.8376 25.5629 19.8421C27.2059 19.8854 28.6807 18.8218 29.0881 17.2197Z" fill="#565799"/>
<path d="M30.8092 22.8165C30.5083 22.1717 29.7821 21.7295 28.6781 21.5125C28.157 21.3846 26.7467 21.2045 25.435 21.2288C25.4153 21.2315 25.4045 21.245 25.4027 21.254C25.4 21.2666 25.4054 21.2882 25.4314 21.3017C26.0376 21.6034 28.3808 22.9155 28.0862 25.6829C28.0737 25.8027 28.1695 25.9063 28.2886 25.8883C28.8652 25.8054 30.3489 25.4848 30.8092 24.4861C31.0635 23.9584 31.0635 23.3451 30.8092 22.8165Z" fill="#565799"/>
<path opacity="0.4" d="M15.0448 12.78C14.8165 12.7331 14.581 12.707 14.3357 12.707C12.0793 12.707 10.3073 14.8422 10.9125 17.2197C11.3191 18.8218 12.7938 19.8854 14.4369 19.8421C14.6016 19.8376 14.7637 19.8223 14.9204 19.7953C15.0341 19.7755 15.0914 19.6467 15.0269 19.5513C14.4001 18.6237 14.0429 17.5079 14.0429 16.3102C14.0429 15.0593 14.4333 13.8949 15.1111 12.9394C15.1326 12.9097 15.1487 12.8637 15.1272 12.8295C15.1093 12.8016 15.0762 12.7872 15.0448 12.78Z" fill="#565799"/>
<path d="M11.3216 21.5127C10.2175 21.7297 9.49225 22.1719 9.19139 22.8167C8.9362 23.3453 8.9362 23.9586 9.19139 24.4872C9.65163 25.4851 11.1353 25.8066 11.712 25.8885C11.831 25.9065 11.926 25.8038 11.9134 25.6832C11.6188 22.9167 13.9621 21.6046 14.5692 21.3029C14.5943 21.2885 14.5996 21.2677 14.5969 21.2542C14.5951 21.2452 14.5853 21.2317 14.5656 21.2299C13.2529 21.2047 11.8436 21.3848 11.3216 21.5127Z" fill="#565799"/>
</svg>
