<svg width="40" height="40" viewBox="0 0 40 40" fill="none" xmlns="http://www.w3.org/2000/svg">
<circle opacity="0.3" cx="20" cy="20" r="20" fill="#EBBE79"/>
<path d="M19.9491 21.54C16.4991 21.54 13.5881 22.1038 13.5881 24.2795C13.5881 26.4562 16.5179 27.0001 19.9491 27.0001C23.3991 27.0001 26.31 26.4364 26.31 24.2606C26.31 22.084 23.3803 21.54 19.9491 21.54Z" fill="#EBBE79"/>
<path opacity="0.4" d="M19.949 19.467C22.2851 19.467 24.1583 17.5831 24.1583 15.2335C24.1583 12.8831 22.2851 11 19.949 11C17.6129 11 15.7397 12.8831 15.7397 15.2335C15.7397 17.5831 17.6129 19.467 19.949 19.467Z" fill="#EBBE79"/>
<path opacity="0.4" d="M29.0881 16.2197C29.6925 13.8422 27.9205 11.707 25.664 11.707C25.4187 11.707 25.1841 11.734 24.9549 11.78C24.9244 11.7872 24.8904 11.8025 24.8725 11.8295C24.8519 11.8637 24.8671 11.9097 24.8895 11.9394C25.5673 12.8958 25.9568 14.0602 25.9568 15.3102C25.9568 16.5079 25.5996 17.6246 24.9728 18.5513C24.9083 18.6467 24.9656 18.7755 25.0793 18.7953C25.2369 18.8232 25.3981 18.8376 25.5629 18.8421C27.2059 18.8854 28.6807 17.8218 29.0881 16.2197Z" fill="#EBBE79"/>
<path d="M30.8092 21.8165C30.5083 21.1717 29.7821 20.7295 28.6781 20.5125C28.157 20.3846 26.7467 20.2045 25.435 20.2288C25.4153 20.2315 25.4045 20.245 25.4027 20.254C25.4 20.2666 25.4054 20.2882 25.4314 20.3017C26.0376 20.6034 28.3808 21.9155 28.0862 24.6829C28.0737 24.8027 28.1695 24.9063 28.2886 24.8883C28.8652 24.8054 30.3489 24.4848 30.8092 23.4861C31.0635 22.9584 31.0635 22.3451 30.8092 21.8165Z" fill="#EBBE79"/>
<path opacity="0.4" d="M15.0448 11.78C14.8165 11.7331 14.581 11.707 14.3357 11.707C12.0793 11.707 10.3073 13.8422 10.9125 16.2197C11.3191 17.8218 12.7938 18.8854 14.4369 18.8421C14.6016 18.8376 14.7637 18.8223 14.9204 18.7953C15.0341 18.7755 15.0914 18.6467 15.0269 18.5513C14.4001 17.6237 14.0429 16.5079 14.0429 15.3102C14.0429 14.0593 14.4333 12.8949 15.1111 11.9394C15.1326 11.9097 15.1487 11.8637 15.1272 11.8295C15.1093 11.8016 15.0762 11.7872 15.0448 11.78Z" fill="#EBBE79"/>
<path d="M11.3216 20.5127C10.2175 20.7297 9.49225 21.1719 9.19139 21.8167C8.9362 22.3453 8.9362 22.9586 9.19139 23.4872C9.65163 24.4851 11.1353 24.8066 11.712 24.8885C11.831 24.9065 11.926 24.8038 11.9134 24.6832C11.6188 21.9167 13.9621 20.6046 14.5692 20.3029C14.5943 20.2885 14.5996 20.2677 14.5969 20.2542C14.5951 20.2452 14.5853 20.2317 14.5656 20.2299C13.2529 20.2047 11.8436 20.3848 11.3216 20.5127Z" fill="#EBBE79"/>
</svg>
