<svg width="1097" height="126" viewBox="0 0 1097 126" fill="none" xmlns="http://www.w3.org/2000/svg">
<rect width="1097" height="126" fill="#FAA61A"/>
<path opacity="0.4" fill-rule="evenodd" clip-rule="evenodd" d="M26.557 -157.081C108.701 -149.474 116.889 -104.583 174.449 -80.0038C227.875 -57.1899 332.706 -51.8396 345.186 -21.0223C358.132 10.9477 298.556 42.4632 231.421 60.6804C172.629 76.6337 97.6613 65.0766 26.557 65.4377C-46.2946 65.8077 -121.903 78.2479 -183.592 62.788C-256.852 44.4281 -313.191 13.4213 -318.442 -21.0223C-323.923 -56.9738 -275.017 -90.3584 -210.8 -115.684C-146.968 -140.858 -60.8868 -165.18 26.557 -157.081Z" fill="#EBBE79"/>
<path opacity="0.4" fill-rule="evenodd" clip-rule="evenodd" d="M929.313 63.2518C986.68 58.1218 1059.27 47.1949 1102.11 63.2516C1147.24 80.1651 1103.25 111.861 1121.86 135.417C1137.04 154.621 1195.98 165.858 1199.08 185.955C1202.31 206.918 1166.56 224.996 1138.42 242.748C1105.85 263.289 1082.73 293.199 1022.64 297.248C960.988 301.403 915.925 274.248 862.418 261.346C823.65 251.998 779.653 246.087 751.612 231.896C724.297 218.071 722.173 199.843 707.966 183.179C689.971 162.071 636.426 141.619 656.972 120.885C677.276 100.395 751.243 100.59 800.04 90.264C843.901 80.9822 880.863 67.5843 929.313 63.2518Z" fill="#A8AFCC"/>
<path opacity="0.4" fill-rule="evenodd" clip-rule="evenodd" d="M943.707 -107.471C1011.75 -106.296 1043.94 -85.3479 1094.69 -72.8572C1151.05 -58.9855 1250.34 -52.1998 1252.66 -31.4361C1254.98 -10.6618 1165.6 0.413864 1104.24 12.6048C1055.82 22.2253 1003.18 28.2796 943.707 29.9471C875.15 31.8693 790.898 37.1207 746.628 22.6313C702.706 8.25607 751.38 -12.7245 756.16 -31.4361C760.327 -47.7511 739.03 -64.8767 772.441 -78.4219C811.545 -94.2753 874.071 -108.674 943.707 -107.471Z" fill="#447C8A"/>
<path opacity="0.4" fill-rule="evenodd" clip-rule="evenodd" d="M433.329 142.033C434.063 159.068 465.694 175.851 438.568 191.177C405.58 209.814 351.431 231.012 275.911 230.97C201.326 230.928 175.93 203.709 117.485 190.997C59.3224 178.346 -39.5462 177.572 -59.6921 157.973C-80.556 137.676 -34.3719 114.935 25.8159 101.817C78.2839 90.3811 152.623 100.695 218.507 97.3375C294.608 93.4593 372.145 68.1934 433.818 81.025C495.217 93.7995 432.417 120.894 433.329 142.033Z" fill="#565799"/>
</svg>
